<?xml version="1.0" encoding="utf-8"?>
<!-- Generator: Adobe Illustrator 16.0.3, SVG Export Plug-In . SVG Version: 6.00 Build 0)  -->
<!DOCTYPE svg PUBLIC "-//W3C//DTD SVG 1.1//EN" "http://www.w3.org/Graphics/SVG/1.1/DTD/svg11.dtd">
<svg version="1.1" id="Layer_1" xmlns="http://www.w3.org/2000/svg" xmlns:xlink="http://www.w3.org/1999/xlink" x="0px" y="0px"
	 width="15px" height="15px" viewBox="0 0 15 15" enable-background="new 0 0 15 15" xml:space="preserve">
<g>
	<path fill="#979797" d="M8.1,1l0.1,1.1l0,0.6l0.5,0.3c0.3,0.2,0.7,0.3,1,0.5l0.6,0.3l0.5-0.5l0.8-0.7l0.8,0.8l-0.7,0.8l-0.4,0.5
		l0.3,0.6l0.3,0.5l0.2,0.5l0.3,0.5l0.6,0L14,6.9V8h-1h-0.7l-0.2,0.7c-0.1,0.4-0.3,0.7-0.4,1l-0.3,0.6l0.5,0.5l0.7,0.8l-0.8,0.8
		L11,11.8l-0.4-0.4L10,11.6c-0.6,0.2-0.9,0.4-1.3,0.6l-0.5,0.3l0,0.6L8.1,14H7v-1v-0.7l-0.7-0.2c-0.4-0.1-0.7-0.3-1-0.4l-0.6-0.3
		l-0.5,0.4l-0.8,0.7l-0.8-0.8L3.2,11l0.4-0.4L3.4,10C3.3,9.5,3.1,9.1,2.9,8.7L2.6,8.2l-0.6,0L1,8.1V6.9l1.1-0.1l0.6,0l0.3-0.5
		l0.4-0.7l0.1-0.3l0.3-0.6L3.2,4.2L2.5,3.4l0.8-0.8l0.8,0.7l0.5,0.4l0.6-0.3l0.2-0.1l0.8-0.4l0.5-0.3l0-0.6L6.9,1H8.1 M7.5,11
		C9.4,11,11,9.4,11,7.5S9.4,4,7.5,4C5.6,4,4,5.6,4,7.5S5.6,11,7.5,11 M9,0H6L5.8,2c-0.3,0.2-0.7,0.3-1,0.5L3.3,1.2L1.2,3.3l1.3,1.5
		C2.3,5.2,2.2,5.5,2,5.8L0,6v3l2,0.2c0.2,0.3,0.3,0.7,0.5,1.2l-1.3,1.3l2.2,2.2l1.5-1.3C5.2,12.7,5.5,12.8,6,13v2h3l0.2-2
		c0.3-0.2,0.7-0.3,1.2-0.5l1.3,1.3l2.2-2.2l-1.3-1.5C12.7,9.8,12.8,9.5,13,9h2V6l-2-0.2c-0.2-0.3-0.3-0.7-0.5-1l1.3-1.5l-2.2-2.2
		l-1.5,1.3C9.8,2.3,9.5,2.2,9.2,2L9,0L9,0z M7.5,10C6.2,10,5,8.8,5,7.5C5,6.2,6.2,5,7.5,5S10,6.2,10,7.5C10,8.8,8.8,10,7.5,10
		L7.5,10z"/>
</g>
</svg>
