<?xml version="1.0" encoding="utf-8"?>
<!-- Generator: Adobe Illustrator 16.0.3, SVG Export Plug-In . SVG Version: 6.00 Build 0)  -->
<!DOCTYPE svg PUBLIC "-//W3C//DTD SVG 1.1//EN" "http://www.w3.org/Graphics/SVG/1.1/DTD/svg11.dtd">
<svg version="1.1" id="Layer_1" xmlns="http://www.w3.org/2000/svg" xmlns:xlink="http://www.w3.org/1999/xlink" x="0px" y="0px"
	 width="26px" height="24px" viewBox="0 0 26 24" enable-background="new 0 0 26 24" xml:space="preserve">
<g>
	<path fill-rule="evenodd" clip-rule="evenodd" fill="#627789" d="M11.3,23c-0.1,0-0.2,0-0.2,0c-0.1,0-0.2,0-0.2,0H11.3z M7,17
		c0,0.7,0.6,2,1.3,2H10l0,3c0,0.6,0.4,0.9,1,1c0.6-0.1,1-0.3,1-1v-3h2v3c0,0.6,0.4,0.9,1,1c0.6-0.1,1-0.3,1-1l0-3h1.5
		c0.6,0,1.5-1.3,1.5-2V9H7V17z M15.2,23c-0.1,0-0.2,0-0.2,0c-0.1,0-0.2,0-0.2,0H15.2z M5,9L5,9c-0.6,0-1,0.7-1,1.4v5.4
		C4,16.5,4.5,17,5,17h0c0.5,0,1-0.5,1-1.2v-5.4C6,9.7,5.6,9,5,9z M16,3l1-1.6C17,1.3,17,1.1,16.9,1c-0.1-0.1-0.2,0-0.3,0.1l-1,1.7
		c-0.8-0.3-1.7-0.5-2.6-0.5c-0.9,0-1.8,0.2-2.6,0.5l-1-1.7C9.3,1,9.2,1,9.1,1C9,1.1,9,1.3,9,1.4L10,3C8.2,3.9,7,5.8,7,7.8
		C7,7.9,7,7.9,7,8h12c0-0.1,0-0.1,0-0.2C19,5.8,17.8,3.9,16,3z M11,6.2h-1v-1h1V6.2z M16,6.2h-1v-1h1V6.2z M21,9L21,9
		c-0.6,0-1,0.7-1,1.4v5.4c0,0.7,0.4,1.2,1,1.2h0c0.5,0,1-0.5,1-1.2v-5.4C22,9.7,21.6,9,21,9z"/>
</g>
</svg>
