<?xml version="1.0" encoding="utf-8"?>
<!-- Generator: Adobe Illustrator 16.0.3, SVG Export Plug-In . SVG Version: 6.00 Build 0)  -->
<!DOCTYPE svg PUBLIC "-//W3C//DTD SVG 1.1//EN" "http://www.w3.org/Graphics/SVG/1.1/DTD/svg11.dtd">
<svg version="1.1" id="Layer_1" xmlns="http://www.w3.org/2000/svg" xmlns:xlink="http://www.w3.org/1999/xlink" x="0px" y="0px"
	 width="26px" height="24px" viewBox="0 0 26 24" enable-background="new 0 0 26 24" xml:space="preserve">
<g>
	<path fill="#627789" d="M21.8,16.9C21.8,16.9,21.8,16.9,21.8,16.9c-0.3-0.1-2.8-1.2-2.8-4.2c0-2.4,1.8-3.7,2.2-3.9l0,0
		c0,0,0.1-0.1,0.1-0.1c0,0,0-0.1,0-0.1c-1.3-1.9-3.3-2.2-4.1-2.2c-0.1,0-0.2,0-0.4,0c-0.9,0-1.8,0.4-2.5,0.6
		c-0.5,0.2-0.9,0.4-1.2,0.4c-0.3,0-0.8-0.2-1.3-0.4c-0.7-0.3-1.4-0.6-2.2-0.6c0,0,0,0-0.1,0C7.7,6.4,6,7.4,5,9.1
		c-1.8,3.2-0.7,8.1,1.4,11.1c1,1.5,2,2.8,3.5,2.8c0,0,0.1,0,0.1,0c0.7,0,1.1-0.2,1.6-0.4c0.5-0.2,1.1-0.5,1.9-0.5
		c0.8,0,1.3,0.2,1.8,0.4c0.5,0.2,1,0.4,1.7,0.4c1.6,0,2.6-1.5,3.4-2.7c0.9-1.3,1.3-2.6,1.5-3.1l0,0C21.9,17,21.9,17,21.8,16.9z
		 M13.2,6.2c0.1,0,0.2,0,0.2,0c1.1,0,2.3-0.6,3.1-1.6c0.9-1,1.3-2.3,1.2-3.5c0-0.1-0.1-0.2-0.2-0.2c-1.1,0-2.5,0.7-3.3,1.7
		c-0.7,0.8-1.4,2.1-1.2,3.4C13,6.2,13.1,6.2,13.2,6.2z"/>
</g>
</svg>
